<mxfile host="app.diagrams.net" modified="2024-02-09T20:02:41.405Z" agent="Mozilla/5.0 (Windows NT 10.0; Win64; x64) AppleWebKit/537.36 (KHTML, like Gecko) Chrome/121.0.0.0 Safari/537.36" etag="jn8RHy2C1kZz1AnKvGJI" version="23.1.2" type="device">
  <diagram name="Page-1" id="2uusiSWJD4mNrX5vhdV4">
    <mxGraphModel dx="1032" dy="2918" grid="1" gridSize="10" guides="1" tooltips="1" connect="1" arrows="1" fold="1" page="1" pageScale="1" pageWidth="827" pageHeight="1169" math="0" shadow="0">
      <root>
        <mxCell id="0" />
        <mxCell id="1" parent="0" />
        <mxCell id="cjCh7DbLiIH0CelXDLPa-3" value="" style="rounded=0;whiteSpace=wrap;html=1;fillColor=none;" parent="1" vertex="1">
          <mxGeometry x="84" y="-2310" width="660" height="2280" as="geometry" />
        </mxCell>
        <mxCell id="cjCh7DbLiIH0CelXDLPa-5" value="&lt;font style=&quot;font-size: 18px;&quot;&gt;&lt;b&gt;Project Management System&lt;/b&gt;&lt;/font&gt;" style="text;html=1;strokeColor=none;fillColor=none;align=center;verticalAlign=middle;whiteSpace=wrap;rounded=0;" parent="1" vertex="1">
          <mxGeometry x="273" y="-2300" width="280" height="30" as="geometry" />
        </mxCell>
        <mxCell id="cjCh7DbLiIH0CelXDLPa-46" value="" style="endArrow=none;html=1;rounded=0;entryX=0;entryY=0.5;entryDx=0;entryDy=0;exitX=1;exitY=0.3333333333333333;exitDx=0;exitDy=0;exitPerimeter=0;" parent="1" source="cjCh7DbLiIH0CelXDLPa-44" target="eKeShG3hfIOovDlSq38T-2" edge="1">
          <mxGeometry width="50" height="50" relative="1" as="geometry">
            <mxPoint x="80.69" y="-845" as="sourcePoint" />
            <mxPoint x="270.69" y="-1194" as="targetPoint" />
          </mxGeometry>
        </mxCell>
        <mxCell id="cjCh7DbLiIH0CelXDLPa-44" value="" style="shape=umlActor;verticalLabelPosition=bottom;verticalAlign=top;html=1;outlineConnect=0;" parent="1" vertex="1">
          <mxGeometry x="16.500000000000004" y="-915" width="30" height="60" as="geometry" />
        </mxCell>
        <mxCell id="cjCh7DbLiIH0CelXDLPa-59" value="Senior Project Manager" style="text;html=1;strokeColor=none;fillColor=default;align=center;verticalAlign=middle;whiteSpace=wrap;rounded=0;" parent="1" vertex="1">
          <mxGeometry x="7.190000000000004" y="-845" width="58" height="24" as="geometry" />
        </mxCell>
        <mxCell id="cjCh7DbLiIH0CelXDLPa-100" value="Manage Materials" style="ellipse;whiteSpace=wrap;html=1;fillColor=default;" parent="1" vertex="1">
          <mxGeometry x="204.75" y="-1590" width="140" height="40" as="geometry" />
        </mxCell>
        <mxCell id="cjCh7DbLiIH0CelXDLPa-104" value="" style="shape=umlActor;verticalLabelPosition=bottom;verticalAlign=top;html=1;outlineConnect=0;" parent="1" vertex="1">
          <mxGeometry x="16.5" y="-1600" width="30" height="60" as="geometry" />
        </mxCell>
        <mxCell id="cjCh7DbLiIH0CelXDLPa-108" value="" style="endArrow=none;html=1;rounded=0;entryX=0;entryY=0.5;entryDx=0;entryDy=0;exitX=1;exitY=0.3333333333333333;exitDx=0;exitDy=0;exitPerimeter=0;" parent="1" source="cjCh7DbLiIH0CelXDLPa-104" target="cjCh7DbLiIH0CelXDLPa-100" edge="1">
          <mxGeometry width="50" height="50" relative="1" as="geometry">
            <mxPoint x="92.5" y="-1490" as="sourcePoint" />
            <mxPoint x="302.5" y="-1783" as="targetPoint" />
          </mxGeometry>
        </mxCell>
        <mxCell id="cjCh7DbLiIH0CelXDLPa-111" value="" style="endArrow=none;html=1;rounded=0;exitX=1;exitY=0.3333333333333333;exitDx=0;exitDy=0;exitPerimeter=0;entryX=0;entryY=0.5;entryDx=0;entryDy=0;" parent="1" source="cjCh7DbLiIH0CelXDLPa-104" target="0M_ZTAcVaHgIJ8tdhLXu-81" edge="1">
          <mxGeometry width="50" height="50" relative="1" as="geometry">
            <mxPoint x="100" y="-1499" as="sourcePoint" />
            <mxPoint x="251.24999999999977" y="-1329" as="targetPoint" />
          </mxGeometry>
        </mxCell>
        <mxCell id="cjCh7DbLiIH0CelXDLPa-112" value="Resource &lt;br&gt;Manager" style="text;html=1;strokeColor=none;fillColor=default;align=center;verticalAlign=middle;whiteSpace=wrap;rounded=0;" parent="1" vertex="1">
          <mxGeometry x="8.59" y="-1519" width="52.81" height="20" as="geometry" />
        </mxCell>
        <mxCell id="cjCh7DbLiIH0CelXDLPa-129" value="" style="shape=umlActor;verticalLabelPosition=bottom;verticalAlign=top;html=1;outlineConnect=0;" parent="1" vertex="1">
          <mxGeometry x="20" y="-2180" width="30" height="60" as="geometry" />
        </mxCell>
        <mxCell id="cjCh7DbLiIH0CelXDLPa-141" value="Project&amp;nbsp;&lt;br&gt;Manager" style="text;html=1;strokeColor=none;fillColor=default;align=center;verticalAlign=middle;whiteSpace=wrap;rounded=0;" parent="1" vertex="1">
          <mxGeometry x="7.19" y="-2120" width="55.62" height="23" as="geometry" />
        </mxCell>
        <mxCell id="eKeShG3hfIOovDlSq38T-2" value="Manage project" style="ellipse;whiteSpace=wrap;html=1;fillColor=default;" parent="1" vertex="1">
          <mxGeometry x="212" y="-1120" width="140" height="40" as="geometry" />
        </mxCell>
        <mxCell id="eKeShG3hfIOovDlSq38T-9" value="" style="endArrow=none;html=1;rounded=0;entryX=0;entryY=0.5;entryDx=0;entryDy=0;exitX=1;exitY=0.3333333333333333;exitDx=0;exitDy=0;exitPerimeter=0;" parent="1" source="cjCh7DbLiIH0CelXDLPa-44" target="eKeShG3hfIOovDlSq38T-10" edge="1">
          <mxGeometry width="50" height="50" relative="1" as="geometry">
            <mxPoint x="80.69" y="-845" as="sourcePoint" />
            <mxPoint x="240.69" y="-950" as="targetPoint" />
          </mxGeometry>
        </mxCell>
        <mxCell id="eKeShG3hfIOovDlSq38T-10" value="Manage Employees in Project" style="ellipse;whiteSpace=wrap;html=1;fillColor=default;" parent="1" vertex="1">
          <mxGeometry x="210" y="-1020" width="140" height="40" as="geometry" />
        </mxCell>
        <mxCell id="eKeShG3hfIOovDlSq38T-11" value="Add Employees to&lt;br&gt;the Project" style="ellipse;whiteSpace=wrap;html=1;fillColor=default;" parent="1" vertex="1">
          <mxGeometry x="420" y="-1050" width="140" height="40" as="geometry" />
        </mxCell>
        <mxCell id="eKeShG3hfIOovDlSq38T-15" value="Update Employees in&lt;br style=&quot;border-color: var(--border-color);&quot;&gt;Project" style="ellipse;whiteSpace=wrap;html=1;fillColor=default;" parent="1" vertex="1">
          <mxGeometry x="425.81" y="-990" width="140" height="40" as="geometry" />
        </mxCell>
        <mxCell id="eKeShG3hfIOovDlSq38T-75" value="&lt;span style=&quot;color: rgb(0, 0, 0); font-family: Helvetica; font-size: 12px; font-style: normal; font-variant-ligatures: normal; font-variant-caps: normal; font-weight: 400; letter-spacing: normal; orphans: 2; text-align: center; text-indent: 0px; text-transform: none; widows: 2; word-spacing: 0px; -webkit-text-stroke-width: 0px; background-color: rgb(251, 251, 251); text-decoration-thickness: initial; text-decoration-style: initial; text-decoration-color: initial; float: none; display: inline !important;&quot;&gt;Add&amp;nbsp;&lt;/span&gt;&amp;nbsp;Materials" style="ellipse;whiteSpace=wrap;html=1;fillColor=default;" parent="1" vertex="1">
          <mxGeometry x="565.8100000000001" y="-1620" width="140" height="30" as="geometry" />
        </mxCell>
        <mxCell id="eKeShG3hfIOovDlSq38T-77" value="&lt;span style=&quot;color: rgb(0, 0, 0); font-family: Helvetica; font-size: 12px; font-style: normal; font-variant-ligatures: normal; font-variant-caps: normal; font-weight: 400; letter-spacing: normal; orphans: 2; text-align: center; text-indent: 0px; text-transform: none; widows: 2; word-spacing: 0px; -webkit-text-stroke-width: 0px; background-color: rgb(251, 251, 251); text-decoration-thickness: initial; text-decoration-style: initial; text-decoration-color: initial; float: none; display: inline !important;&quot;&gt;Update&amp;nbsp;&lt;/span&gt;Materials" style="ellipse;whiteSpace=wrap;html=1;fillColor=default;" parent="1" vertex="1">
          <mxGeometry x="564.19" y="-1580" width="140" height="30" as="geometry" />
        </mxCell>
        <mxCell id="RGTpIK4v9KlUOTematBv-17" value="Add project" style="ellipse;whiteSpace=wrap;html=1;fillColor=default;" parent="1" vertex="1">
          <mxGeometry x="540" y="-1150" width="140" height="40" as="geometry" />
        </mxCell>
        <mxCell id="RGTpIK4v9KlUOTematBv-19" value="Update project" style="ellipse;whiteSpace=wrap;html=1;fillColor=default;" parent="1" vertex="1">
          <mxGeometry x="540" y="-1100" width="140" height="40" as="geometry" />
        </mxCell>
        <mxCell id="NV_1faEgX1KbTYwPyQH8-10" value="&amp;lt;&amp;lt;extend&amp;gt;&amp;gt;" style="endArrow=open;endSize=12;dashed=1;html=1;rounded=0;entryX=0.973;entryY=0.339;entryDx=0;entryDy=0;entryPerimeter=0;exitX=0;exitY=0.5;exitDx=0;exitDy=0;" parent="1" source="RGTpIK4v9KlUOTematBv-17" target="eKeShG3hfIOovDlSq38T-2" edge="1">
          <mxGeometry x="0.0277" y="-12" width="160" relative="1" as="geometry">
            <mxPoint x="450.69" y="-1114" as="sourcePoint" />
            <mxPoint x="323.69" y="-1373" as="targetPoint" />
            <Array as="points" />
            <mxPoint as="offset" />
          </mxGeometry>
        </mxCell>
        <mxCell id="NV_1faEgX1KbTYwPyQH8-12" value="&amp;lt;&amp;lt;extend&amp;gt;&amp;gt;" style="endArrow=open;endSize=12;dashed=1;html=1;rounded=0;exitX=0;exitY=0.5;exitDx=0;exitDy=0;entryX=0.985;entryY=0.614;entryDx=0;entryDy=0;entryPerimeter=0;" parent="1" source="RGTpIK4v9KlUOTematBv-19" target="eKeShG3hfIOovDlSq38T-2" edge="1">
          <mxGeometry x="-0.0321" y="2" width="160" relative="1" as="geometry">
            <mxPoint x="449.69" y="-1215" as="sourcePoint" />
            <mxPoint x="315.69" y="-1169" as="targetPoint" />
            <Array as="points" />
            <mxPoint as="offset" />
          </mxGeometry>
        </mxCell>
        <mxCell id="NV_1faEgX1KbTYwPyQH8-13" value="&amp;lt;&amp;lt;extend&amp;gt;&amp;gt;" style="endArrow=open;endSize=12;dashed=1;html=1;rounded=0;entryX=0.952;entryY=0.331;entryDx=0;entryDy=0;exitX=0;exitY=0.5;exitDx=0;exitDy=0;entryPerimeter=0;" parent="1" source="eKeShG3hfIOovDlSq38T-11" target="eKeShG3hfIOovDlSq38T-10" edge="1">
          <mxGeometry x="-0.1286" y="6" width="160" relative="1" as="geometry">
            <mxPoint x="460.69" y="-1025" as="sourcePoint" />
            <mxPoint x="354.69" y="-1157" as="targetPoint" />
            <Array as="points" />
            <mxPoint as="offset" />
          </mxGeometry>
        </mxCell>
        <mxCell id="NV_1faEgX1KbTYwPyQH8-15" value="&amp;lt;&amp;lt;extend&amp;gt;&amp;gt;" style="endArrow=open;endSize=12;dashed=1;html=1;rounded=0;exitX=0;exitY=0.5;exitDx=0;exitDy=0;entryX=0.914;entryY=0.795;entryDx=0;entryDy=0;entryPerimeter=0;" parent="1" source="eKeShG3hfIOovDlSq38T-15" target="eKeShG3hfIOovDlSq38T-10" edge="1">
          <mxGeometry x="-0.2618" y="-3" width="160" relative="1" as="geometry">
            <mxPoint x="478.69" y="-952" as="sourcePoint" />
            <mxPoint x="340.69" y="-994" as="targetPoint" />
            <Array as="points" />
            <mxPoint as="offset" />
          </mxGeometry>
        </mxCell>
        <mxCell id="NV_1faEgX1KbTYwPyQH8-43" value="&amp;lt;&amp;lt;extend&amp;gt;&amp;gt;" style="endArrow=open;endSize=12;dashed=1;html=1;rounded=0;exitX=0;exitY=0.5;exitDx=0;exitDy=0;entryX=0.954;entryY=0.35;entryDx=0;entryDy=0;entryPerimeter=0;" parent="1" source="eKeShG3hfIOovDlSq38T-75" target="cjCh7DbLiIH0CelXDLPa-100" edge="1">
          <mxGeometry x="0.0279" y="-12" width="160" relative="1" as="geometry">
            <mxPoint x="444" y="-1586" as="sourcePoint" />
            <mxPoint x="329.53" y="-1565.3400000000001" as="targetPoint" />
            <Array as="points" />
            <mxPoint as="offset" />
          </mxGeometry>
        </mxCell>
        <mxCell id="NV_1faEgX1KbTYwPyQH8-44" value="&amp;lt;&amp;lt;extend&amp;gt;&amp;gt;" style="endArrow=open;endSize=12;dashed=1;html=1;rounded=0;exitX=0;exitY=0.5;exitDx=0;exitDy=0;" parent="1" source="eKeShG3hfIOovDlSq38T-77" target="cjCh7DbLiIH0CelXDLPa-100" edge="1">
          <mxGeometry x="0.0279" y="-12" width="160" relative="1" as="geometry">
            <mxPoint x="452.5" y="-1545" as="sourcePoint" />
            <mxPoint x="330" y="-1500" as="targetPoint" />
            <Array as="points" />
            <mxPoint as="offset" />
          </mxGeometry>
        </mxCell>
        <mxCell id="LUo7Zia1x8Gf0-j5yHv2-7" value="Logout" style="ellipse;whiteSpace=wrap;html=1;fillColor=default;" parent="1" vertex="1">
          <mxGeometry x="204.75" y="-1830" width="140" height="30" as="geometry" />
        </mxCell>
        <mxCell id="LUo7Zia1x8Gf0-j5yHv2-8" value="" style="endArrow=none;html=1;rounded=0;entryX=0;entryY=0.5;entryDx=0;entryDy=0;exitX=1;exitY=0.3333333333333333;exitDx=0;exitDy=0;exitPerimeter=0;" parent="1" source="cjCh7DbLiIH0CelXDLPa-129" target="LUo7Zia1x8Gf0-j5yHv2-7" edge="1">
          <mxGeometry width="50" height="50" relative="1" as="geometry">
            <mxPoint x="60" y="-2160" as="sourcePoint" />
            <mxPoint x="151" y="-1673" as="targetPoint" />
          </mxGeometry>
        </mxCell>
        <mxCell id="gCKsXqGzt_pPM1Y6W0CS-4" value="" style="endArrow=none;html=1;rounded=0;entryX=0;entryY=0.5;entryDx=0;entryDy=0;exitX=1;exitY=0.3333333333333333;exitDx=0;exitDy=0;exitPerimeter=0;" parent="1" source="cjCh7DbLiIH0CelXDLPa-44" target="0M_ZTAcVaHgIJ8tdhLXu-83" edge="1">
          <mxGeometry width="50" height="50" relative="1" as="geometry">
            <mxPoint x="48.59000000000009" y="-745" as="sourcePoint" />
            <mxPoint x="234.1900000000041" y="-784.9999999999998" as="targetPoint" />
          </mxGeometry>
        </mxCell>
        <mxCell id="nxE3jffrjEZW-xmDIq7u-7" value="" style="endArrow=none;html=1;rounded=0;entryX=0;entryY=0.5;entryDx=0;entryDy=0;exitX=1;exitY=0.3333333333333333;exitDx=0;exitDy=0;exitPerimeter=0;" parent="1" source="cjCh7DbLiIH0CelXDLPa-44" target="nxE3jffrjEZW-xmDIq7u-8" edge="1">
          <mxGeometry width="50" height="50" relative="1" as="geometry">
            <mxPoint x="80.69" y="-845" as="sourcePoint" />
            <mxPoint x="224.94000000000318" y="-385" as="targetPoint" />
          </mxGeometry>
        </mxCell>
        <mxCell id="nxE3jffrjEZW-xmDIq7u-8" value="Send Approval/Rejection&lt;font color=&quot;#1a1a1a&quot;&gt;&lt;br&gt;&lt;/font&gt;" style="ellipse;whiteSpace=wrap;html=1;fillColor=#FDFFF7;" parent="1" vertex="1">
          <mxGeometry x="212" y="-821" width="140" height="40" as="geometry" />
        </mxCell>
        <mxCell id="nxE3jffrjEZW-xmDIq7u-35" value="" style="endArrow=none;html=1;rounded=0;entryX=0;entryY=0.5;entryDx=0;entryDy=0;exitX=1;exitY=0.3333333333333333;exitDx=0;exitDy=0;exitPerimeter=0;" parent="1" source="cjCh7DbLiIH0CelXDLPa-4" target="nxE3jffrjEZW-xmDIq7u-36" edge="1">
          <mxGeometry width="50" height="50" relative="1" as="geometry">
            <mxPoint x="90" y="-1180" as="sourcePoint" />
            <mxPoint x="237.5" y="-1158" as="targetPoint" />
          </mxGeometry>
        </mxCell>
        <mxCell id="nxE3jffrjEZW-xmDIq7u-36" value="Manage user" style="ellipse;whiteSpace=wrap;html=1;fillColor=default;" parent="1" vertex="1">
          <mxGeometry x="203.75" y="-440" width="140" height="40" as="geometry" />
        </mxCell>
        <mxCell id="nxE3jffrjEZW-xmDIq7u-37" value="&lt;span style=&quot;background-color: rgb(255, 255, 255);&quot;&gt;Create User&lt;/span&gt;" style="ellipse;whiteSpace=wrap;html=1;fillColor=#FDFFF7;" parent="1" vertex="1">
          <mxGeometry x="500" y="-460" width="140" height="40" as="geometry" />
        </mxCell>
        <mxCell id="nxE3jffrjEZW-xmDIq7u-38" value="&amp;lt;&amp;lt;extend&amp;gt;&amp;gt;" style="endArrow=open;endSize=12;dashed=1;html=1;rounded=0;exitX=0;exitY=0.5;exitDx=0;exitDy=0;" parent="1" source="nxE3jffrjEZW-xmDIq7u-37" target="nxE3jffrjEZW-xmDIq7u-36" edge="1">
          <mxGeometry x="0.0277" y="-12" width="160" relative="1" as="geometry">
            <mxPoint x="480" y="-1346" as="sourcePoint" />
            <mxPoint x="352" y="-1150" as="targetPoint" />
            <Array as="points" />
            <mxPoint as="offset" />
          </mxGeometry>
        </mxCell>
        <mxCell id="nxE3jffrjEZW-xmDIq7u-39" value="&lt;span style=&quot;background-color: rgb(255, 255, 255);&quot;&gt;Update User&lt;/span&gt;" style="ellipse;whiteSpace=wrap;html=1;fillColor=#FDFFF7;" parent="1" vertex="1">
          <mxGeometry x="500" y="-400" width="140" height="40" as="geometry" />
        </mxCell>
        <mxCell id="nxE3jffrjEZW-xmDIq7u-40" value="&amp;lt;&amp;lt;extend&amp;gt;&amp;gt;" style="endArrow=open;endSize=12;dashed=1;html=1;rounded=0;exitX=0;exitY=0.5;exitDx=0;exitDy=0;entryX=0.948;entryY=0.731;entryDx=0;entryDy=0;entryPerimeter=0;" parent="1" source="nxE3jffrjEZW-xmDIq7u-39" target="nxE3jffrjEZW-xmDIq7u-36" edge="1">
          <mxGeometry x="0.0277" y="-12" width="160" relative="1" as="geometry">
            <mxPoint x="497.5" y="-1088" as="sourcePoint" />
            <mxPoint x="360" y="-970" as="targetPoint" />
            <Array as="points" />
            <mxPoint as="offset" />
          </mxGeometry>
        </mxCell>
        <mxCell id="nxE3jffrjEZW-xmDIq7u-41" value="" style="endArrow=none;html=1;rounded=0;entryX=0;entryY=0.5;entryDx=0;entryDy=0;exitX=1;exitY=0.3333333333333333;exitDx=0;exitDy=0;exitPerimeter=0;" parent="1" source="cjCh7DbLiIH0CelXDLPa-4" target="nxE3jffrjEZW-xmDIq7u-42" edge="1">
          <mxGeometry width="50" height="50" relative="1" as="geometry">
            <mxPoint x="90" y="-1180" as="sourcePoint" />
            <mxPoint x="350" y="-1088" as="targetPoint" />
          </mxGeometry>
        </mxCell>
        <mxCell id="nxE3jffrjEZW-xmDIq7u-42" value="Generate Users Report" style="ellipse;whiteSpace=wrap;html=1;fillColor=default;" parent="1" vertex="1">
          <mxGeometry x="203.75" y="-370" width="140" height="40" as="geometry" />
        </mxCell>
        <mxCell id="enwFGEt4gPeQiGZyCrF8-174" value="View PM Requests" style="ellipse;whiteSpace=wrap;html=1;fillColor=default;" parent="1" vertex="1">
          <mxGeometry x="520" y="-821" width="140" height="40" as="geometry" />
        </mxCell>
        <mxCell id="enwFGEt4gPeQiGZyCrF8-199" style="edgeStyle=orthogonalEdgeStyle;rounded=0;orthogonalLoop=1;jettySize=auto;html=1;exitX=0.5;exitY=1;exitDx=0;exitDy=0;" parent="1" edge="1">
          <mxGeometry relative="1" as="geometry">
            <mxPoint x="363" y="-1824" as="sourcePoint" />
            <mxPoint x="363" y="-1824" as="targetPoint" />
          </mxGeometry>
        </mxCell>
        <mxCell id="6UnLR0QENHaxJre8c1_V-1" value="" style="shape=umlActor;verticalLabelPosition=bottom;verticalAlign=top;html=1;outlineConnect=0;" parent="1" vertex="1">
          <mxGeometry x="760.5" y="-290" width="30" height="60" as="geometry" />
        </mxCell>
        <mxCell id="6UnLR0QENHaxJre8c1_V-3" value="" style="endArrow=none;html=1;rounded=0;exitX=0;exitY=0.3333333333333333;exitDx=0;exitDy=0;exitPerimeter=0;entryX=1;entryY=0.5;entryDx=0;entryDy=0;" parent="1" source="6UnLR0QENHaxJre8c1_V-1" target="0M_ZTAcVaHgIJ8tdhLXu-130" edge="1">
          <mxGeometry width="50" height="50" relative="1" as="geometry">
            <mxPoint x="747.5" y="-312" as="sourcePoint" />
            <mxPoint x="609.5" y="-510.00000000000045" as="targetPoint" />
          </mxGeometry>
        </mxCell>
        <mxCell id="6UnLR0QENHaxJre8c1_V-4" value="Check progress" style="ellipse;whiteSpace=wrap;html=1;fillColor=default;" parent="1" vertex="1">
          <mxGeometry x="455" y="-160" width="150" height="40" as="geometry" />
        </mxCell>
        <mxCell id="6UnLR0QENHaxJre8c1_V-6" value="Client" style="text;html=1;strokeColor=none;fillColor=none;align=center;verticalAlign=middle;whiteSpace=wrap;rounded=0;" parent="1" vertex="1">
          <mxGeometry x="745.5" y="-230" width="60" height="30" as="geometry" />
        </mxCell>
        <mxCell id="6UnLR0QENHaxJre8c1_V-7" value="Logout" style="ellipse;whiteSpace=wrap;html=1;fillColor=default;" parent="1" vertex="1">
          <mxGeometry x="455" y="-100" width="150" height="40" as="geometry" />
        </mxCell>
        <mxCell id="6UnLR0QENHaxJre8c1_V-8" value="" style="endArrow=none;html=1;rounded=0;entryX=1;entryY=0.5;entryDx=0;entryDy=0;exitX=0;exitY=0.3333333333333333;exitDx=0;exitDy=0;exitPerimeter=0;" parent="1" source="6UnLR0QENHaxJre8c1_V-1" target="6UnLR0QENHaxJre8c1_V-7" edge="1">
          <mxGeometry width="50" height="50" relative="1" as="geometry">
            <mxPoint x="747.5" y="-310" as="sourcePoint" />
            <mxPoint x="369.5" y="-244" as="targetPoint" />
          </mxGeometry>
        </mxCell>
        <mxCell id="0M_ZTAcVaHgIJ8tdhLXu-3" value="" style="ellipse;whiteSpace=wrap;html=1;direction=west;" parent="1" vertex="1">
          <mxGeometry x="210" y="-2210" width="140" height="50" as="geometry" />
        </mxCell>
        <mxCell id="0M_ZTAcVaHgIJ8tdhLXu-4" value="" style="endArrow=none;html=1;rounded=0;exitX=1;exitY=0.5;exitDx=0;exitDy=0;" parent="1" source="0M_ZTAcVaHgIJ8tdhLXu-3" edge="1">
          <mxGeometry width="50" height="50" relative="1" as="geometry">
            <mxPoint x="218" y="-2186" as="sourcePoint" />
            <mxPoint x="348" y="-2186" as="targetPoint" />
          </mxGeometry>
        </mxCell>
        <mxCell id="0M_ZTAcVaHgIJ8tdhLXu-5" value="&lt;font style=&quot;font-size: 12px;&quot;&gt;Login to Account&lt;br&gt;if forget password&lt;/font&gt;" style="edgeLabel;html=1;align=center;verticalAlign=middle;resizable=0;points=[];" parent="0M_ZTAcVaHgIJ8tdhLXu-4" vertex="1" connectable="0">
          <mxGeometry x="0.2591" relative="1" as="geometry">
            <mxPoint x="-19" y="1" as="offset" />
          </mxGeometry>
        </mxCell>
        <mxCell id="0M_ZTAcVaHgIJ8tdhLXu-6" value="" style="endArrow=none;html=1;rounded=0;entryX=1;entryY=0.5;entryDx=0;entryDy=0;exitX=1;exitY=0.3333333333333333;exitDx=0;exitDy=0;exitPerimeter=0;" parent="1" source="cjCh7DbLiIH0CelXDLPa-129" target="0M_ZTAcVaHgIJ8tdhLXu-3" edge="1">
          <mxGeometry width="50" height="50" relative="1" as="geometry">
            <mxPoint x="52.5" y="-2160" as="sourcePoint" />
            <mxPoint x="218" y="-2230" as="targetPoint" />
          </mxGeometry>
        </mxCell>
        <mxCell id="0M_ZTAcVaHgIJ8tdhLXu-9" value="Reset Password" style="ellipse;whiteSpace=wrap;html=1;direction=west;" parent="1" vertex="1">
          <mxGeometry x="480" y="-2205" width="140" height="40" as="geometry" />
        </mxCell>
        <mxCell id="0M_ZTAcVaHgIJ8tdhLXu-10" value="&amp;lt;&amp;lt;extend&amp;gt;&amp;gt;" style="endArrow=open;endSize=12;dashed=1;html=1;rounded=0;exitX=1;exitY=0.5;exitDx=0;exitDy=0;" parent="1" source="0M_ZTAcVaHgIJ8tdhLXu-9" target="0M_ZTAcVaHgIJ8tdhLXu-3" edge="1">
          <mxGeometry x="-0.0046" width="160" relative="1" as="geometry">
            <mxPoint x="665.69" y="-1973.1299999999999" as="sourcePoint" />
            <mxPoint x="426" y="-2185.01" as="targetPoint" />
            <mxPoint as="offset" />
          </mxGeometry>
        </mxCell>
        <mxCell id="0M_ZTAcVaHgIJ8tdhLXu-12" value="Change Password" style="ellipse;whiteSpace=wrap;html=1;" parent="1" vertex="1">
          <mxGeometry x="212" y="-2150" width="140" height="40" as="geometry" />
        </mxCell>
        <mxCell id="0M_ZTAcVaHgIJ8tdhLXu-13" value="Verify Current Password" style="ellipse;whiteSpace=wrap;html=1;" parent="1" vertex="1">
          <mxGeometry x="480" y="-2150" width="140" height="40" as="geometry" />
        </mxCell>
        <mxCell id="0M_ZTAcVaHgIJ8tdhLXu-14" value="&amp;lt;&amp;lt;include&amp;gt;&amp;gt;" style="endArrow=open;endSize=12;dashed=1;html=1;rounded=0;entryX=0;entryY=0.5;entryDx=0;entryDy=0;exitX=1;exitY=0.5;exitDx=0;exitDy=0;" parent="1" source="0M_ZTAcVaHgIJ8tdhLXu-12" target="0M_ZTAcVaHgIJ8tdhLXu-13" edge="1">
          <mxGeometry x="0.006" width="160" relative="1" as="geometry">
            <mxPoint x="359.75" y="-1712" as="sourcePoint" />
            <mxPoint x="311.75" y="-2030" as="targetPoint" />
            <mxPoint as="offset" />
          </mxGeometry>
        </mxCell>
        <mxCell id="0M_ZTAcVaHgIJ8tdhLXu-15" value="" style="endArrow=none;html=1;rounded=0;entryX=0;entryY=0.5;entryDx=0;entryDy=0;exitX=1;exitY=0.3333333333333333;exitDx=0;exitDy=0;exitPerimeter=0;" parent="1" source="cjCh7DbLiIH0CelXDLPa-129" target="0M_ZTAcVaHgIJ8tdhLXu-12" edge="1">
          <mxGeometry width="50" height="50" relative="1" as="geometry">
            <mxPoint x="60" y="-2150" as="sourcePoint" />
            <mxPoint x="218" y="-2175" as="targetPoint" />
          </mxGeometry>
        </mxCell>
        <mxCell id="0M_ZTAcVaHgIJ8tdhLXu-45" value="" style="endArrow=none;html=1;rounded=0;entryX=0;entryY=0.5;entryDx=0;entryDy=0;exitX=1;exitY=0.3333333333333333;exitDx=0;exitDy=0;exitPerimeter=0;" parent="1" source="cjCh7DbLiIH0CelXDLPa-129" target="0M_ZTAcVaHgIJ8tdhLXu-46" edge="1">
          <mxGeometry width="50" height="50" relative="1" as="geometry">
            <mxPoint x="57" y="-2160" as="sourcePoint" />
            <mxPoint x="195" y="-2198" as="targetPoint" />
          </mxGeometry>
        </mxCell>
        <mxCell id="0M_ZTAcVaHgIJ8tdhLXu-46" value="Login" style="ellipse;whiteSpace=wrap;html=1;fillColor=default;" parent="1" vertex="1">
          <mxGeometry x="210" y="-2260" width="140" height="40" as="geometry" />
        </mxCell>
        <mxCell id="0M_ZTAcVaHgIJ8tdhLXu-47" value="Verify User" style="ellipse;whiteSpace=wrap;html=1;fillColor=default;" parent="1" vertex="1">
          <mxGeometry x="480" y="-2260" width="140" height="40" as="geometry" />
        </mxCell>
        <mxCell id="0M_ZTAcVaHgIJ8tdhLXu-48" value="&amp;lt;&amp;lt;include&amp;gt;&amp;gt;" style="endArrow=open;endSize=12;dashed=1;html=1;rounded=0;exitX=1;exitY=0.5;exitDx=0;exitDy=0;entryX=0;entryY=0.5;entryDx=0;entryDy=0;" parent="1" source="0M_ZTAcVaHgIJ8tdhLXu-46" target="0M_ZTAcVaHgIJ8tdhLXu-47" edge="1">
          <mxGeometry x="0.0471" y="10" width="160" relative="1" as="geometry">
            <mxPoint x="383.5" y="-2240" as="sourcePoint" />
            <mxPoint x="500.5" y="-2315.67" as="targetPoint" />
            <Array as="points" />
            <mxPoint as="offset" />
          </mxGeometry>
        </mxCell>
        <mxCell id="0M_ZTAcVaHgIJ8tdhLXu-49" value="" style="endArrow=none;html=1;rounded=0;entryX=0;entryY=0.5;entryDx=0;entryDy=0;exitX=1;exitY=0.3333333333333333;exitDx=0;exitDy=0;exitPerimeter=0;" parent="1" source="cjCh7DbLiIH0CelXDLPa-129" target="0M_ZTAcVaHgIJ8tdhLXu-50" edge="1">
          <mxGeometry width="50" height="50" relative="1" as="geometry">
            <mxPoint x="54" y="-2010" as="sourcePoint" />
            <mxPoint x="228.25000000000318" y="-1500" as="targetPoint" />
          </mxGeometry>
        </mxCell>
        <mxCell id="0M_ZTAcVaHgIJ8tdhLXu-50" value="&lt;font color=&quot;#1a1a1a&quot;&gt;View Project&amp;nbsp;&lt;/font&gt;" style="ellipse;whiteSpace=wrap;html=1;fillColor=#FDFFF7;" parent="1" vertex="1">
          <mxGeometry x="212" y="-2097" width="140" height="40" as="geometry" />
        </mxCell>
        <mxCell id="0M_ZTAcVaHgIJ8tdhLXu-51" value="&lt;font color=&quot;#1a1a1a&quot;&gt;Send Employee&lt;br&gt;Request for Project &lt;br&gt;to&amp;nbsp;SPM&lt;br&gt;&lt;/font&gt;" style="ellipse;whiteSpace=wrap;html=1;fillColor=#FDFFF7;" parent="1" vertex="1">
          <mxGeometry x="210.69" y="-2000" width="140" height="50" as="geometry" />
        </mxCell>
        <mxCell id="0M_ZTAcVaHgIJ8tdhLXu-52" value="" style="endArrow=none;html=1;rounded=0;entryX=0;entryY=0.5;entryDx=0;entryDy=0;exitX=1;exitY=0.3333333333333333;exitDx=0;exitDy=0;exitPerimeter=0;" parent="1" source="cjCh7DbLiIH0CelXDLPa-129" target="0M_ZTAcVaHgIJ8tdhLXu-51" edge="1">
          <mxGeometry width="50" height="50" relative="1" as="geometry">
            <mxPoint x="70" y="-2151" as="sourcePoint" />
            <mxPoint x="220" y="-2010" as="targetPoint" />
          </mxGeometry>
        </mxCell>
        <mxCell id="0M_ZTAcVaHgIJ8tdhLXu-53" value="&amp;lt;&amp;lt;include&amp;gt;&amp;gt;" style="endArrow=open;endSize=12;dashed=1;html=1;rounded=0;entryX=0.032;entryY=0.485;entryDx=0;entryDy=0;exitX=1;exitY=0.5;exitDx=0;exitDy=0;entryPerimeter=0;" parent="1" source="0M_ZTAcVaHgIJ8tdhLXu-51" target="0M_ZTAcVaHgIJ8tdhLXu-54" edge="1">
          <mxGeometry x="0.006" width="160" relative="1" as="geometry">
            <mxPoint x="352" y="-1970.62" as="sourcePoint" />
            <mxPoint x="460" y="-1970.62" as="targetPoint" />
            <mxPoint as="offset" />
          </mxGeometry>
        </mxCell>
        <mxCell id="0M_ZTAcVaHgIJ8tdhLXu-54" value="Check Employee Availability" style="ellipse;whiteSpace=wrap;html=1;fillColor=default;" parent="1" vertex="1">
          <mxGeometry x="480" y="-1990" width="140" height="40" as="geometry" />
        </mxCell>
        <mxCell id="0M_ZTAcVaHgIJ8tdhLXu-55" value="&lt;font color=&quot;#1a1a1a&quot;&gt;Submit Task Plan&lt;/font&gt;" style="ellipse;whiteSpace=wrap;html=1;fillColor=#FDFFF7;" parent="1" vertex="1">
          <mxGeometry x="209" y="-2050" width="140" height="40" as="geometry" />
        </mxCell>
        <mxCell id="0M_ZTAcVaHgIJ8tdhLXu-56" value="" style="endArrow=none;html=1;rounded=0;entryX=0;entryY=0.5;entryDx=0;entryDy=0;exitX=1;exitY=0.3333333333333333;exitDx=0;exitDy=0;exitPerimeter=0;" parent="1" source="cjCh7DbLiIH0CelXDLPa-129" target="0M_ZTAcVaHgIJ8tdhLXu-55" edge="1">
          <mxGeometry width="50" height="50" relative="1" as="geometry">
            <mxPoint x="70" y="-2151" as="sourcePoint" />
            <mxPoint x="220" y="-2010" as="targetPoint" />
          </mxGeometry>
        </mxCell>
        <mxCell id="0M_ZTAcVaHgIJ8tdhLXu-61" value="&lt;font color=&quot;#1a1a1a&quot;&gt;Update Task Plan&lt;/font&gt;" style="ellipse;whiteSpace=wrap;html=1;fillColor=#FDFFF7;" parent="1" vertex="1">
          <mxGeometry x="480" y="-2050" width="140" height="40" as="geometry" />
        </mxCell>
        <mxCell id="0M_ZTAcVaHgIJ8tdhLXu-62" value="&amp;lt;&amp;lt;include&amp;gt;&amp;gt;" style="endArrow=open;endSize=12;dashed=1;html=1;rounded=0;entryX=0;entryY=0.5;entryDx=0;entryDy=0;exitX=1;exitY=0.5;exitDx=0;exitDy=0;" parent="1" source="0M_ZTAcVaHgIJ8tdhLXu-55" target="0M_ZTAcVaHgIJ8tdhLXu-61" edge="1">
          <mxGeometry x="0.006" width="160" relative="1" as="geometry">
            <mxPoint x="350" y="-1970.62" as="sourcePoint" />
            <mxPoint x="468" y="-1970.62" as="targetPoint" />
            <mxPoint as="offset" />
          </mxGeometry>
        </mxCell>
        <mxCell id="0M_ZTAcVaHgIJ8tdhLXu-64" value="Manage Employees" style="ellipse;whiteSpace=wrap;html=1;fillColor=default;" parent="1" vertex="1">
          <mxGeometry x="210.69" y="-1529" width="140" height="40" as="geometry" />
        </mxCell>
        <mxCell id="0M_ZTAcVaHgIJ8tdhLXu-65" value="" style="endArrow=none;html=1;rounded=0;entryX=0;entryY=0.5;entryDx=0;entryDy=0;exitX=1;exitY=0.3333333333333333;exitDx=0;exitDy=0;exitPerimeter=0;" parent="1" source="cjCh7DbLiIH0CelXDLPa-104" target="0M_ZTAcVaHgIJ8tdhLXu-64" edge="1">
          <mxGeometry width="50" height="50" relative="1" as="geometry">
            <mxPoint x="40.940000000000055" y="-1720" as="sourcePoint" />
            <mxPoint x="221.5" y="-1640" as="targetPoint" />
          </mxGeometry>
        </mxCell>
        <mxCell id="0M_ZTAcVaHgIJ8tdhLXu-66" value="&lt;span style=&quot;background-color: rgb(255, 255, 255);&quot;&gt;Add Employees&lt;/span&gt;" style="ellipse;whiteSpace=wrap;html=1;fillColor=#FDFFF7;" parent="1" vertex="1">
          <mxGeometry x="460.00000000000006" y="-1540" width="140" height="29" as="geometry" />
        </mxCell>
        <mxCell id="0M_ZTAcVaHgIJ8tdhLXu-67" value="&lt;span style=&quot;background-color: rgb(255, 255, 255);&quot;&gt;Update Employee&lt;/span&gt;" style="ellipse;whiteSpace=wrap;html=1;fillColor=#FDFFF7;" parent="1" vertex="1">
          <mxGeometry x="460" y="-1499" width="140" height="30" as="geometry" />
        </mxCell>
        <mxCell id="0M_ZTAcVaHgIJ8tdhLXu-68" value="&amp;lt;&amp;lt;extend&amp;gt;&amp;gt;" style="endArrow=open;endSize=12;dashed=1;html=1;rounded=0;exitX=0;exitY=0.5;exitDx=0;exitDy=0;" parent="1" source="0M_ZTAcVaHgIJ8tdhLXu-67" edge="1">
          <mxGeometry x="0.0277" y="-12" width="160" relative="1" as="geometry">
            <mxPoint x="462" y="-1510" as="sourcePoint" />
            <mxPoint x="340" y="-1500" as="targetPoint" />
            <Array as="points" />
            <mxPoint as="offset" />
          </mxGeometry>
        </mxCell>
        <mxCell id="0M_ZTAcVaHgIJ8tdhLXu-69" value="&amp;lt;&amp;lt;extend&amp;gt;&amp;gt;" style="endArrow=open;endSize=12;dashed=1;html=1;rounded=0;exitX=0;exitY=0.5;exitDx=0;exitDy=0;entryX=1;entryY=0.5;entryDx=0;entryDy=0;" parent="1" source="0M_ZTAcVaHgIJ8tdhLXu-66" target="0M_ZTAcVaHgIJ8tdhLXu-64" edge="1">
          <mxGeometry x="0.0277" y="-12" width="160" relative="1" as="geometry">
            <mxPoint x="471.5" y="-1590" as="sourcePoint" />
            <mxPoint x="354.5" y="-1631" as="targetPoint" />
            <Array as="points" />
            <mxPoint as="offset" />
          </mxGeometry>
        </mxCell>
        <mxCell id="0M_ZTAcVaHgIJ8tdhLXu-76" value="Generate Project Plan Report Project Wise&amp;nbsp;" style="ellipse;whiteSpace=wrap;html=1;fillColor=#FDFFF7;" parent="1" vertex="1">
          <mxGeometry x="480" y="-1880" width="140" height="40" as="geometry" />
        </mxCell>
        <mxCell id="0M_ZTAcVaHgIJ8tdhLXu-77" value="&lt;font color=&quot;#1a1a1a&quot;&gt;&lt;span style=&quot;font-size: 12px;&quot;&gt;Generate&lt;/span&gt;&amp;nbsp;Project &lt;span style=&quot;font-size: 12px;&quot;&gt;Plan&lt;/span&gt;&lt;br&gt;&lt;/font&gt;Report" style="ellipse;whiteSpace=wrap;html=1;fillColor=#FDFFF7;" parent="1" vertex="1">
          <mxGeometry x="204.75" y="-1880" width="140" height="40" as="geometry" />
        </mxCell>
        <mxCell id="0M_ZTAcVaHgIJ8tdhLXu-78" value="&amp;lt;&amp;lt;extend&amp;gt;&amp;gt;" style="endArrow=open;endSize=12;dashed=1;html=1;rounded=0;exitX=0;exitY=0.5;exitDx=0;exitDy=0;" parent="1" source="0M_ZTAcVaHgIJ8tdhLXu-76" target="0M_ZTAcVaHgIJ8tdhLXu-77" edge="1">
          <mxGeometry x="-0.0046" width="160" relative="1" as="geometry">
            <mxPoint x="472" y="-1860.62" as="sourcePoint" />
            <mxPoint x="352" y="-1860.62" as="targetPoint" />
            <mxPoint as="offset" />
          </mxGeometry>
        </mxCell>
        <mxCell id="0M_ZTAcVaHgIJ8tdhLXu-79" value="" style="endArrow=none;html=1;rounded=0;entryX=0;entryY=0.5;entryDx=0;entryDy=0;exitX=1;exitY=0.3333333333333333;exitDx=0;exitDy=0;exitPerimeter=0;" parent="1" source="cjCh7DbLiIH0CelXDLPa-129" target="0M_ZTAcVaHgIJ8tdhLXu-77" edge="1">
          <mxGeometry width="50" height="50" relative="1" as="geometry">
            <mxPoint x="60" y="-2150" as="sourcePoint" />
            <mxPoint x="222" y="-1910" as="targetPoint" />
          </mxGeometry>
        </mxCell>
        <mxCell id="0M_ZTAcVaHgIJ8tdhLXu-80" value="&lt;font style=&quot;border-color: var(--border-color);&quot; color=&quot;#1a1a1a&quot;&gt;Generate&amp;nbsp;Employee&lt;br style=&quot;border-color: var(--border-color);&quot;&gt;&lt;/font&gt;Report Date Wise" style="ellipse;whiteSpace=wrap;html=1;fillColor=#FDFFF7;" parent="1" vertex="1">
          <mxGeometry x="495.5" y="-1430" width="140" height="40" as="geometry" />
        </mxCell>
        <mxCell id="0M_ZTAcVaHgIJ8tdhLXu-81" value="&lt;font color=&quot;#1a1a1a&quot;&gt;&lt;span style=&quot;font-size: 12px;&quot;&gt;Generate&lt;/span&gt;&amp;nbsp;Employee&lt;br&gt;&lt;/font&gt;Report" style="ellipse;whiteSpace=wrap;html=1;fillColor=#FDFFF7;" parent="1" vertex="1">
          <mxGeometry x="212" y="-1390" width="140" height="40" as="geometry" />
        </mxCell>
        <mxCell id="0M_ZTAcVaHgIJ8tdhLXu-82" value="&amp;lt;&amp;lt;extend&amp;gt;&amp;gt;" style="endArrow=open;endSize=12;dashed=1;html=1;rounded=0;exitX=0;exitY=0.5;exitDx=0;exitDy=0;" parent="1" source="0M_ZTAcVaHgIJ8tdhLXu-80" target="0M_ZTAcVaHgIJ8tdhLXu-81" edge="1">
          <mxGeometry x="-0.0046" width="160" relative="1" as="geometry">
            <mxPoint x="410" y="-1360.62" as="sourcePoint" />
            <mxPoint x="290" y="-1360.62" as="targetPoint" />
            <mxPoint as="offset" />
          </mxGeometry>
        </mxCell>
        <mxCell id="0M_ZTAcVaHgIJ8tdhLXu-83" value="Request Materials/Employees&lt;br&gt;&lt;font color=&quot;#1a1a1a&quot;&gt;for Project from Resource Manager&lt;/font&gt;" style="ellipse;whiteSpace=wrap;html=1;fillColor=default;" parent="1" vertex="1">
          <mxGeometry x="203.75" y="-619" width="186.25" height="70" as="geometry" />
        </mxCell>
        <mxCell id="0M_ZTAcVaHgIJ8tdhLXu-86" value="&lt;font color=&quot;#1a1a1a&quot;&gt;Send Material&lt;br&gt;Request for Project&lt;br&gt;to SPM&lt;br&gt;&lt;/font&gt;" style="ellipse;whiteSpace=wrap;html=1;fillColor=#FDFFF7;" parent="1" vertex="1">
          <mxGeometry x="204.75" y="-1940" width="140" height="50" as="geometry" />
        </mxCell>
        <mxCell id="0M_ZTAcVaHgIJ8tdhLXu-88" value="Check Material Availability" style="ellipse;whiteSpace=wrap;html=1;fillColor=default;" parent="1" vertex="1">
          <mxGeometry x="480" y="-1935" width="140" height="40" as="geometry" />
        </mxCell>
        <mxCell id="0M_ZTAcVaHgIJ8tdhLXu-89" value="&amp;lt;&amp;lt;include&amp;gt;&amp;gt;" style="endArrow=open;endSize=12;dashed=1;html=1;rounded=0;entryX=0;entryY=0.5;entryDx=0;entryDy=0;exitX=1;exitY=0.5;exitDx=0;exitDy=0;" parent="1" source="0M_ZTAcVaHgIJ8tdhLXu-86" target="0M_ZTAcVaHgIJ8tdhLXu-88" edge="1">
          <mxGeometry x="0.006" width="160" relative="1" as="geometry">
            <mxPoint x="362" y="-1910" as="sourcePoint" />
            <mxPoint x="504" y="-1911" as="targetPoint" />
            <mxPoint as="offset" />
          </mxGeometry>
        </mxCell>
        <mxCell id="0M_ZTAcVaHgIJ8tdhLXu-90" value="" style="endArrow=none;html=1;rounded=0;entryX=0;entryY=0.5;entryDx=0;entryDy=0;exitX=1;exitY=0.3333333333333333;exitDx=0;exitDy=0;exitPerimeter=0;" parent="1" source="cjCh7DbLiIH0CelXDLPa-129" target="0M_ZTAcVaHgIJ8tdhLXu-86" edge="1">
          <mxGeometry width="50" height="50" relative="1" as="geometry">
            <mxPoint x="60" y="-2150" as="sourcePoint" />
            <mxPoint x="222" y="-1910" as="targetPoint" />
          </mxGeometry>
        </mxCell>
        <mxCell id="0M_ZTAcVaHgIJ8tdhLXu-91" value="&lt;font color=&quot;#1a1a1a&quot;&gt;Respond the Requests&lt;br&gt;of SPM&lt;br&gt;&lt;/font&gt;" style="ellipse;whiteSpace=wrap;html=1;fillColor=#FDFFF7;" parent="1" vertex="1">
          <mxGeometry x="210" y="-1470" width="140" height="40" as="geometry" />
        </mxCell>
        <mxCell id="0M_ZTAcVaHgIJ8tdhLXu-92" value="&amp;lt;&amp;lt;include&amp;gt;&amp;gt;" style="endArrow=open;endSize=12;dashed=1;html=1;rounded=0;entryX=0.032;entryY=0.485;entryDx=0;entryDy=0;exitX=1;exitY=0.5;exitDx=0;exitDy=0;entryPerimeter=0;" parent="1" source="0M_ZTAcVaHgIJ8tdhLXu-91" target="0M_ZTAcVaHgIJ8tdhLXu-93" edge="1">
          <mxGeometry x="0.006" width="160" relative="1" as="geometry">
            <mxPoint x="350" y="-1520.62" as="sourcePoint" />
            <mxPoint x="458" y="-1520.62" as="targetPoint" />
            <mxPoint as="offset" />
          </mxGeometry>
        </mxCell>
        <mxCell id="0M_ZTAcVaHgIJ8tdhLXu-93" value="Check Request" style="ellipse;whiteSpace=wrap;html=1;fillColor=default;" parent="1" vertex="1">
          <mxGeometry x="565.81" y="-1470" width="140" height="40" as="geometry" />
        </mxCell>
        <mxCell id="0M_ZTAcVaHgIJ8tdhLXu-94" value="" style="endArrow=none;html=1;rounded=0;exitX=1;exitY=0.3333333333333333;exitDx=0;exitDy=0;exitPerimeter=0;entryX=0;entryY=0.5;entryDx=0;entryDy=0;" parent="1" source="cjCh7DbLiIH0CelXDLPa-104" target="0M_ZTAcVaHgIJ8tdhLXu-91" edge="1">
          <mxGeometry width="50" height="50" relative="1" as="geometry">
            <mxPoint x="68" y="-1570" as="sourcePoint" />
            <mxPoint x="259" y="-1399" as="targetPoint" />
          </mxGeometry>
        </mxCell>
        <mxCell id="0M_ZTAcVaHgIJ8tdhLXu-96" value="&lt;font color=&quot;#1a1a1a&quot;&gt;&lt;span style=&quot;font-size: 12px;&quot;&gt;Generate&lt;/span&gt;&amp;nbsp;Materials&lt;br&gt;&lt;/font&gt;Report" style="ellipse;whiteSpace=wrap;html=1;fillColor=#FDFFF7;" parent="1" vertex="1">
          <mxGeometry x="212" y="-1310" width="140" height="40" as="geometry" />
        </mxCell>
        <mxCell id="0M_ZTAcVaHgIJ8tdhLXu-99" value="" style="endArrow=none;html=1;rounded=0;exitX=1;exitY=0.3333333333333333;exitDx=0;exitDy=0;exitPerimeter=0;entryX=0;entryY=0.5;entryDx=0;entryDy=0;" parent="1" source="cjCh7DbLiIH0CelXDLPa-104" target="0M_ZTAcVaHgIJ8tdhLXu-96" edge="1">
          <mxGeometry width="50" height="50" relative="1" as="geometry">
            <mxPoint x="68" y="-1570" as="sourcePoint" />
            <mxPoint x="216" y="-1400" as="targetPoint" />
          </mxGeometry>
        </mxCell>
        <mxCell id="0M_ZTAcVaHgIJ8tdhLXu-100" value="&lt;font style=&quot;border-color: var(--border-color);&quot; color=&quot;#1a1a1a&quot;&gt;Generate Materials&amp;nbsp;&lt;br&gt;&lt;/font&gt;Report Project Wise" style="ellipse;whiteSpace=wrap;html=1;fillColor=#FDFFF7;" parent="1" vertex="1">
          <mxGeometry x="560" y="-1330" width="140" height="40" as="geometry" />
        </mxCell>
        <mxCell id="0M_ZTAcVaHgIJ8tdhLXu-101" value="&amp;lt;&amp;lt;extend&amp;gt;&amp;gt;" style="endArrow=open;endSize=12;dashed=1;html=1;rounded=0;exitX=0;exitY=0.5;exitDx=0;exitDy=0;" parent="1" source="0M_ZTAcVaHgIJ8tdhLXu-100" target="0M_ZTAcVaHgIJ8tdhLXu-96" edge="1">
          <mxGeometry x="-0.0046" width="160" relative="1" as="geometry">
            <mxPoint x="476" y="-1340.62" as="sourcePoint" />
            <mxPoint x="340" y="-1340.62" as="targetPoint" />
            <mxPoint as="offset" />
          </mxGeometry>
        </mxCell>
        <mxCell id="0M_ZTAcVaHgIJ8tdhLXu-102" value="&lt;font style=&quot;border-color: var(--border-color);&quot; color=&quot;#1a1a1a&quot;&gt;Generate Materials&amp;nbsp;&lt;br&gt;&lt;/font&gt;Report Date Wise" style="ellipse;whiteSpace=wrap;html=1;fillColor=#FDFFF7;" parent="1" vertex="1">
          <mxGeometry x="564.1899999999999" y="-1270" width="140" height="40" as="geometry" />
        </mxCell>
        <mxCell id="0M_ZTAcVaHgIJ8tdhLXu-103" value="&lt;font style=&quot;border-color: var(--border-color);&quot; color=&quot;#1a1a1a&quot;&gt;Generate&amp;nbsp;Employee&lt;br style=&quot;border-color: var(--border-color);&quot;&gt;&lt;/font&gt;Report Project Wise" style="ellipse;whiteSpace=wrap;html=1;fillColor=#FDFFF7;" parent="1" vertex="1">
          <mxGeometry x="485.5" y="-1380" width="140" height="40" as="geometry" />
        </mxCell>
        <mxCell id="0M_ZTAcVaHgIJ8tdhLXu-104" value="&amp;lt;&amp;lt;extend&amp;gt;&amp;gt;" style="endArrow=open;endSize=12;dashed=1;html=1;rounded=0;exitX=0;exitY=0.5;exitDx=0;exitDy=0;" parent="1" source="0M_ZTAcVaHgIJ8tdhLXu-103" target="0M_ZTAcVaHgIJ8tdhLXu-81" edge="1">
          <mxGeometry x="-0.0046" width="160" relative="1" as="geometry">
            <mxPoint x="500" y="-1400" as="sourcePoint" />
            <mxPoint x="353" y="-1379" as="targetPoint" />
            <mxPoint as="offset" />
          </mxGeometry>
        </mxCell>
        <mxCell id="0M_ZTAcVaHgIJ8tdhLXu-105" value="&amp;lt;&amp;lt;extend&amp;gt;&amp;gt;" style="endArrow=open;endSize=12;dashed=1;html=1;rounded=0;exitX=0;exitY=0.5;exitDx=0;exitDy=0;entryX=0.935;entryY=0.787;entryDx=0;entryDy=0;entryPerimeter=0;" parent="1" source="0M_ZTAcVaHgIJ8tdhLXu-102" target="0M_ZTAcVaHgIJ8tdhLXu-96" edge="1">
          <mxGeometry x="-0.0046" width="160" relative="1" as="geometry">
            <mxPoint x="500" y="-1280" as="sourcePoint" />
            <mxPoint x="352" y="-1266" as="targetPoint" />
            <mxPoint as="offset" />
          </mxGeometry>
        </mxCell>
        <mxCell id="0M_ZTAcVaHgIJ8tdhLXu-108" value="&lt;font color=&quot;#1a1a1a&quot;&gt;Manage Project&amp;nbsp;&lt;br&gt;Plan&lt;br&gt;&lt;/font&gt;" style="ellipse;whiteSpace=wrap;html=1;fillColor=#FDFFF7;" parent="1" vertex="1">
          <mxGeometry x="212" y="-740" width="140" height="40" as="geometry" />
        </mxCell>
        <mxCell id="0M_ZTAcVaHgIJ8tdhLXu-109" value="&lt;font color=&quot;#1a1a1a&quot;&gt;Update Project&amp;nbsp;&lt;br&gt;Plan&lt;br&gt;&lt;/font&gt;" style="ellipse;whiteSpace=wrap;html=1;fillColor=#FDFFF7;" parent="1" vertex="1">
          <mxGeometry x="520" y="-770" width="140" height="40" as="geometry" />
        </mxCell>
        <mxCell id="0M_ZTAcVaHgIJ8tdhLXu-110" value="" style="endArrow=none;html=1;rounded=0;entryX=0;entryY=0.5;entryDx=0;entryDy=0;exitX=1;exitY=0.3333333333333333;exitDx=0;exitDy=0;exitPerimeter=0;" parent="1" source="cjCh7DbLiIH0CelXDLPa-44" target="0M_ZTAcVaHgIJ8tdhLXu-108" edge="1">
          <mxGeometry width="50" height="50" relative="1" as="geometry">
            <mxPoint x="61" y="-885" as="sourcePoint" />
            <mxPoint x="221" y="-865" as="targetPoint" />
          </mxGeometry>
        </mxCell>
        <mxCell id="0M_ZTAcVaHgIJ8tdhLXu-111" value="&lt;font color=&quot;#1a1a1a&quot;&gt;Add Project&amp;nbsp;&lt;br&gt;Plan&lt;br&gt;&lt;/font&gt;" style="ellipse;whiteSpace=wrap;html=1;fillColor=#FDFFF7;" parent="1" vertex="1">
          <mxGeometry x="525" y="-710" width="140" height="40" as="geometry" />
        </mxCell>
        <mxCell id="0M_ZTAcVaHgIJ8tdhLXu-112" value="&amp;lt;&amp;lt;extend&amp;gt;&amp;gt;" style="endArrow=open;endSize=12;dashed=1;html=1;rounded=0;exitX=0;exitY=0.5;exitDx=0;exitDy=0;entryX=0.94;entryY=0.252;entryDx=0;entryDy=0;entryPerimeter=0;" parent="1" source="0M_ZTAcVaHgIJ8tdhLXu-109" target="0M_ZTAcVaHgIJ8tdhLXu-108" edge="1">
          <mxGeometry x="0.0277" y="-12" width="160" relative="1" as="geometry">
            <mxPoint x="510" y="-765.62" as="sourcePoint" />
            <mxPoint x="350" y="-765.62" as="targetPoint" />
            <Array as="points" />
            <mxPoint as="offset" />
          </mxGeometry>
        </mxCell>
        <mxCell id="0M_ZTAcVaHgIJ8tdhLXu-113" value="&amp;lt;&amp;lt;extend&amp;gt;&amp;gt;" style="endArrow=open;endSize=12;dashed=1;html=1;rounded=0;exitX=0;exitY=0.5;exitDx=0;exitDy=0;entryX=0.96;entryY=0.752;entryDx=0;entryDy=0;entryPerimeter=0;" parent="1" source="0M_ZTAcVaHgIJ8tdhLXu-111" target="0M_ZTAcVaHgIJ8tdhLXu-108" edge="1">
          <mxGeometry x="0.0277" y="-12" width="160" relative="1" as="geometry">
            <mxPoint x="521" y="-810" as="sourcePoint" />
            <mxPoint x="362" y="-810" as="targetPoint" />
            <Array as="points" />
            <mxPoint as="offset" />
          </mxGeometry>
        </mxCell>
        <mxCell id="0M_ZTAcVaHgIJ8tdhLXu-130" value="Login" style="ellipse;whiteSpace=wrap;html=1;fillColor=default;" parent="1" vertex="1">
          <mxGeometry x="450" y="-280" width="150" height="40" as="geometry" />
        </mxCell>
        <mxCell id="0M_ZTAcVaHgIJ8tdhLXu-135" value="Verify User" style="ellipse;whiteSpace=wrap;html=1;fillColor=default;" parent="1" vertex="1">
          <mxGeometry x="212" y="-280" width="140" height="40" as="geometry" />
        </mxCell>
        <mxCell id="0M_ZTAcVaHgIJ8tdhLXu-136" value="&amp;lt;&amp;lt;include&amp;gt;&amp;gt;" style="endArrow=open;endSize=12;dashed=1;html=1;rounded=0;exitX=0;exitY=0.5;exitDx=0;exitDy=0;entryX=1;entryY=0.5;entryDx=0;entryDy=0;" parent="1" source="0M_ZTAcVaHgIJ8tdhLXu-130" target="0M_ZTAcVaHgIJ8tdhLXu-135" edge="1">
          <mxGeometry x="0.0471" y="10" width="160" relative="1" as="geometry">
            <mxPoint x="434.6900000000003" y="-470.00000000000045" as="sourcePoint" />
            <mxPoint x="415.5" y="-400" as="targetPoint" />
            <Array as="points" />
            <mxPoint as="offset" />
          </mxGeometry>
        </mxCell>
        <mxCell id="0M_ZTAcVaHgIJ8tdhLXu-137" value="" style="endArrow=none;html=1;rounded=0;entryX=1;entryY=0.5;entryDx=0;entryDy=0;exitX=0;exitY=0.3333333333333333;exitDx=0;exitDy=0;exitPerimeter=0;" parent="1" source="6UnLR0QENHaxJre8c1_V-1" target="6UnLR0QENHaxJre8c1_V-4" edge="1">
          <mxGeometry width="50" height="50" relative="1" as="geometry">
            <mxPoint x="765.5" y="-390" as="sourcePoint" />
            <mxPoint x="652.5" y="-394" as="targetPoint" />
          </mxGeometry>
        </mxCell>
        <mxCell id="0M_ZTAcVaHgIJ8tdhLXu-140" style="edgeStyle=orthogonalEdgeStyle;rounded=0;orthogonalLoop=1;jettySize=auto;html=1;exitX=0.5;exitY=0;exitDx=0;exitDy=0;exitPerimeter=0;" parent="1" source="cjCh7DbLiIH0CelXDLPa-44" edge="1">
          <mxGeometry relative="1" as="geometry">
            <Array as="points" />
            <mxPoint x="30.869999999999997" y="-1000" as="sourcePoint" />
            <mxPoint x="31.679999999999943" y="-1490" as="targetPoint" />
          </mxGeometry>
        </mxCell>
        <mxCell id="0M_ZTAcVaHgIJ8tdhLXu-141" style="edgeStyle=orthogonalEdgeStyle;rounded=0;orthogonalLoop=1;jettySize=auto;html=1;exitX=0.5;exitY=0;exitDx=0;exitDy=0;exitPerimeter=0;" parent="1" source="cjCh7DbLiIH0CelXDLPa-4" edge="1">
          <mxGeometry relative="1" as="geometry">
            <Array as="points" />
            <mxPoint x="31.2" y="-225" as="sourcePoint" />
            <mxPoint x="30.879999999999942" y="-800" as="targetPoint" />
          </mxGeometry>
        </mxCell>
        <mxCell id="cjCh7DbLiIH0CelXDLPa-4" value="General&lt;br&gt;Manager" style="shape=umlActor;verticalLabelPosition=bottom;verticalAlign=top;html=1;outlineConnect=0;" parent="1" vertex="1">
          <mxGeometry x="16.5" y="-410" width="30" height="60" as="geometry" />
        </mxCell>
        <mxCell id="yGH0mHoUT_z8WaKzQ3N3-1" value="" style="endArrow=none;html=1;rounded=0;entryX=0;entryY=0.5;entryDx=0;entryDy=0;exitX=1;exitY=0.3333333333333333;exitDx=0;exitDy=0;exitPerimeter=0;" parent="1" source="cjCh7DbLiIH0CelXDLPa-104" target="yGH0mHoUT_z8WaKzQ3N3-2" edge="1">
          <mxGeometry width="50" height="50" relative="1" as="geometry">
            <mxPoint x="46.5" y="-1610" as="sourcePoint" />
            <mxPoint x="191.5" y="-1648" as="targetPoint" />
          </mxGeometry>
        </mxCell>
        <mxCell id="yGH0mHoUT_z8WaKzQ3N3-2" value="Login" style="ellipse;whiteSpace=wrap;html=1;fillColor=default;" parent="1" vertex="1">
          <mxGeometry x="209" y="-1770" width="140" height="37" as="geometry" />
        </mxCell>
        <mxCell id="yGH0mHoUT_z8WaKzQ3N3-3" value="Verify User" style="ellipse;whiteSpace=wrap;html=1;fillColor=default;" parent="1" vertex="1">
          <mxGeometry x="480" y="-1773" width="140" height="40" as="geometry" />
        </mxCell>
        <mxCell id="yGH0mHoUT_z8WaKzQ3N3-4" value="&amp;lt;&amp;lt;include&amp;gt;&amp;gt;" style="endArrow=open;endSize=12;dashed=1;html=1;rounded=0;exitX=1;exitY=0.5;exitDx=0;exitDy=0;entryX=0;entryY=0.5;entryDx=0;entryDy=0;" parent="1" source="yGH0mHoUT_z8WaKzQ3N3-2" target="yGH0mHoUT_z8WaKzQ3N3-3" edge="1">
          <mxGeometry x="0.0471" y="10" width="160" relative="1" as="geometry">
            <mxPoint x="380" y="-1690" as="sourcePoint" />
            <mxPoint x="497" y="-1765.67" as="targetPoint" />
            <Array as="points" />
            <mxPoint as="offset" />
          </mxGeometry>
        </mxCell>
        <mxCell id="yGH0mHoUT_z8WaKzQ3N3-5" value="" style="ellipse;whiteSpace=wrap;html=1;direction=west;" parent="1" vertex="1">
          <mxGeometry x="204.75" y="-1720" width="140" height="50" as="geometry" />
        </mxCell>
        <mxCell id="yGH0mHoUT_z8WaKzQ3N3-6" value="" style="endArrow=none;html=1;rounded=0;exitX=1;exitY=0.5;exitDx=0;exitDy=0;" parent="1" source="yGH0mHoUT_z8WaKzQ3N3-5" edge="1">
          <mxGeometry width="50" height="50" relative="1" as="geometry">
            <mxPoint x="212.75" y="-1696" as="sourcePoint" />
            <mxPoint x="342.75" y="-1696" as="targetPoint" />
          </mxGeometry>
        </mxCell>
        <mxCell id="yGH0mHoUT_z8WaKzQ3N3-7" value="&lt;font style=&quot;font-size: 12px;&quot;&gt;Login to Account&lt;br&gt;if forget password&lt;/font&gt;" style="edgeLabel;html=1;align=center;verticalAlign=middle;resizable=0;points=[];" parent="yGH0mHoUT_z8WaKzQ3N3-6" vertex="1" connectable="0">
          <mxGeometry x="0.2591" relative="1" as="geometry">
            <mxPoint x="-19" y="1" as="offset" />
          </mxGeometry>
        </mxCell>
        <mxCell id="yGH0mHoUT_z8WaKzQ3N3-8" value="" style="endArrow=none;html=1;rounded=0;entryX=1;entryY=0.5;entryDx=0;entryDy=0;exitX=1;exitY=0.3333333333333333;exitDx=0;exitDy=0;exitPerimeter=0;" parent="1" source="cjCh7DbLiIH0CelXDLPa-104" target="yGH0mHoUT_z8WaKzQ3N3-5" edge="1">
          <mxGeometry width="50" height="50" relative="1" as="geometry">
            <mxPoint x="40" y="-1610" as="sourcePoint" />
            <mxPoint x="208" y="-1680" as="targetPoint" />
          </mxGeometry>
        </mxCell>
        <mxCell id="yGH0mHoUT_z8WaKzQ3N3-9" value="Reset Password" style="ellipse;whiteSpace=wrap;html=1;direction=west;" parent="1" vertex="1">
          <mxGeometry x="480" y="-1715" width="140" height="40" as="geometry" />
        </mxCell>
        <mxCell id="yGH0mHoUT_z8WaKzQ3N3-10" value="&amp;lt;&amp;lt;extend&amp;gt;&amp;gt;" style="endArrow=open;endSize=12;dashed=1;html=1;rounded=0;exitX=1;exitY=0.5;exitDx=0;exitDy=0;" parent="1" source="yGH0mHoUT_z8WaKzQ3N3-9" target="yGH0mHoUT_z8WaKzQ3N3-5" edge="1">
          <mxGeometry x="-0.0046" width="160" relative="1" as="geometry">
            <mxPoint x="655.69" y="-1423.1299999999999" as="sourcePoint" />
            <mxPoint x="416" y="-1635.0100000000002" as="targetPoint" />
            <mxPoint as="offset" />
          </mxGeometry>
        </mxCell>
        <mxCell id="yGH0mHoUT_z8WaKzQ3N3-12" value="Change Password" style="ellipse;whiteSpace=wrap;html=1;" parent="1" vertex="1">
          <mxGeometry x="204.75" y="-1660" width="140" height="40" as="geometry" />
        </mxCell>
        <mxCell id="yGH0mHoUT_z8WaKzQ3N3-13" value="Verify Current Password" style="ellipse;whiteSpace=wrap;html=1;" parent="1" vertex="1">
          <mxGeometry x="480" y="-1660" width="140" height="40" as="geometry" />
        </mxCell>
        <mxCell id="yGH0mHoUT_z8WaKzQ3N3-14" value="&amp;lt;&amp;lt;include&amp;gt;&amp;gt;" style="endArrow=open;endSize=12;dashed=1;html=1;rounded=0;entryX=0;entryY=0.5;entryDx=0;entryDy=0;exitX=1;exitY=0.5;exitDx=0;exitDy=0;" parent="1" source="yGH0mHoUT_z8WaKzQ3N3-12" target="yGH0mHoUT_z8WaKzQ3N3-13" edge="1">
          <mxGeometry x="0.006" width="160" relative="1" as="geometry">
            <mxPoint x="389.75" y="-1192" as="sourcePoint" />
            <mxPoint x="341.75" y="-1510" as="targetPoint" />
            <mxPoint as="offset" />
          </mxGeometry>
        </mxCell>
        <mxCell id="yGH0mHoUT_z8WaKzQ3N3-15" value="" style="endArrow=none;html=1;rounded=0;entryX=0;entryY=0.5;entryDx=0;entryDy=0;exitX=1;exitY=0.3333333333333333;exitDx=0;exitDy=0;exitPerimeter=0;" parent="1" source="cjCh7DbLiIH0CelXDLPa-104" target="yGH0mHoUT_z8WaKzQ3N3-12" edge="1">
          <mxGeometry width="50" height="50" relative="1" as="geometry">
            <mxPoint x="80" y="-1640" as="sourcePoint" />
            <mxPoint x="248" y="-1655" as="targetPoint" />
          </mxGeometry>
        </mxCell>
        <mxCell id="yGH0mHoUT_z8WaKzQ3N3-18" value="Logout" style="ellipse;whiteSpace=wrap;html=1;fillColor=default;" parent="1" vertex="1">
          <mxGeometry x="160" y="-1240" width="140" height="40" as="geometry" />
        </mxCell>
        <mxCell id="yGH0mHoUT_z8WaKzQ3N3-19" value="" style="endArrow=none;html=1;rounded=0;entryX=0;entryY=0.5;entryDx=0;entryDy=0;exitX=1;exitY=0.3333333333333333;exitDx=0;exitDy=0;exitPerimeter=0;" parent="1" source="cjCh7DbLiIH0CelXDLPa-104" target="yGH0mHoUT_z8WaKzQ3N3-18" edge="1">
          <mxGeometry width="50" height="50" relative="1" as="geometry">
            <mxPoint x="-10" y="-1559" as="sourcePoint" />
            <mxPoint x="91" y="-1072" as="targetPoint" />
          </mxGeometry>
        </mxCell>
        <mxCell id="yGH0mHoUT_z8WaKzQ3N3-20" value="Send Feedbacks" style="ellipse;whiteSpace=wrap;html=1;fillColor=default;" parent="1" vertex="1">
          <mxGeometry x="455" y="-220" width="150" height="40" as="geometry" />
        </mxCell>
        <mxCell id="yGH0mHoUT_z8WaKzQ3N3-21" value="" style="endArrow=none;html=1;rounded=0;exitX=0;exitY=0.3333333333333333;exitDx=0;exitDy=0;exitPerimeter=0;entryX=1;entryY=0.5;entryDx=0;entryDy=0;" parent="1" source="6UnLR0QENHaxJre8c1_V-1" target="yGH0mHoUT_z8WaKzQ3N3-20" edge="1">
          <mxGeometry width="50" height="50" relative="1" as="geometry">
            <mxPoint x="770.5" y="-380" as="sourcePoint" />
            <mxPoint x="645.5" y="-409" as="targetPoint" />
          </mxGeometry>
        </mxCell>
        <mxCell id="yGH0mHoUT_z8WaKzQ3N3-22" value="Check Quantity" style="ellipse;whiteSpace=wrap;html=1;fillColor=default;" parent="1" vertex="1">
          <mxGeometry x="640" y="-1050" width="80" height="40" as="geometry" />
        </mxCell>
        <mxCell id="yGH0mHoUT_z8WaKzQ3N3-23" value="&amp;lt;&amp;lt;include&amp;gt;&amp;gt;" style="endArrow=open;endSize=12;dashed=1;html=1;rounded=0;entryX=0;entryY=0.5;entryDx=0;entryDy=0;exitX=1;exitY=0.5;exitDx=0;exitDy=0;" parent="1" source="eKeShG3hfIOovDlSq38T-11" target="yGH0mHoUT_z8WaKzQ3N3-22" edge="1">
          <mxGeometry x="0.006" width="160" relative="1" as="geometry">
            <mxPoint x="500" y="-990.5" as="sourcePoint" />
            <mxPoint x="661" y="-990.5" as="targetPoint" />
            <mxPoint as="offset" />
          </mxGeometry>
        </mxCell>
        <mxCell id="c_8sZBn9xpTtzvCX7_cY-3" style="edgeStyle=orthogonalEdgeStyle;rounded=0;orthogonalLoop=1;jettySize=auto;html=1;exitX=0.5;exitY=1;exitDx=0;exitDy=0;" parent="1" source="0M_ZTAcVaHgIJ8tdhLXu-67" target="0M_ZTAcVaHgIJ8tdhLXu-67" edge="1">
          <mxGeometry relative="1" as="geometry" />
        </mxCell>
        <mxCell id="c_8sZBn9xpTtzvCX7_cY-5" value="&amp;lt;&amp;lt;include&amp;gt;&amp;gt;" style="endArrow=open;endSize=12;dashed=1;html=1;rounded=0;entryX=0;entryY=0.5;entryDx=0;entryDy=0;exitX=1;exitY=0.5;exitDx=0;exitDy=0;" parent="1" source="nxE3jffrjEZW-xmDIq7u-8" target="enwFGEt4gPeQiGZyCrF8-174" edge="1">
          <mxGeometry x="0.006" width="160" relative="1" as="geometry">
            <mxPoint x="346.5" y="-870" as="sourcePoint" />
            <mxPoint x="481.5" y="-870" as="targetPoint" />
            <mxPoint as="offset" />
          </mxGeometry>
        </mxCell>
        <mxCell id="c_8sZBn9xpTtzvCX7_cY-6" value="All Project Details&lt;br&gt;Reports" style="ellipse;whiteSpace=wrap;html=1;fillColor=default;" parent="1" vertex="1">
          <mxGeometry x="203.75" y="-540" width="170" height="44" as="geometry" />
        </mxCell>
        <mxCell id="c_8sZBn9xpTtzvCX7_cY-7" value="&lt;font color=&quot;#1a1a1a&quot;&gt;All &lt;span style=&quot;font-size: 12px;&quot;&gt;Project&lt;/span&gt;&amp;nbsp;Details Report Date Wise&lt;br&gt;&lt;/font&gt;" style="ellipse;whiteSpace=wrap;html=1;fillColor=#FDFFF7;" parent="1" vertex="1">
          <mxGeometry x="510" y="-543" width="150" height="50" as="geometry" />
        </mxCell>
        <mxCell id="c_8sZBn9xpTtzvCX7_cY-9" value="&amp;lt;&amp;lt;extend&amp;gt;&amp;gt;" style="endArrow=open;endSize=12;dashed=1;html=1;rounded=0;exitX=0;exitY=0.5;exitDx=0;exitDy=0;entryX=1;entryY=0.5;entryDx=0;entryDy=0;" parent="1" source="c_8sZBn9xpTtzvCX7_cY-7" target="c_8sZBn9xpTtzvCX7_cY-6" edge="1">
          <mxGeometry x="0.0277" y="-12" width="160" relative="1" as="geometry">
            <mxPoint x="538" y="-625.62" as="sourcePoint" />
            <mxPoint x="372" y="-680" as="targetPoint" />
            <Array as="points" />
            <mxPoint as="offset" />
          </mxGeometry>
        </mxCell>
        <mxCell id="c_8sZBn9xpTtzvCX7_cY-11" value="" style="endArrow=none;html=1;rounded=0;entryX=0;entryY=0.5;entryDx=0;entryDy=0;exitX=1;exitY=0.3333333333333333;exitDx=0;exitDy=0;exitPerimeter=0;" parent="1" source="cjCh7DbLiIH0CelXDLPa-44" target="c_8sZBn9xpTtzvCX7_cY-6" edge="1">
          <mxGeometry width="50" height="50" relative="1" as="geometry">
            <mxPoint x="57" y="-885" as="sourcePoint" />
            <mxPoint x="220" y="-725" as="targetPoint" />
          </mxGeometry>
        </mxCell>
        <mxCell id="pSmC-OP50VQ6VyfGPC_P-1" value="Manage Materials in Project" style="ellipse;whiteSpace=wrap;html=1;fillColor=default;" vertex="1" parent="1">
          <mxGeometry x="204.75" y="-915" width="139" height="40" as="geometry" />
        </mxCell>
        <mxCell id="pSmC-OP50VQ6VyfGPC_P-7" value="Add Materials to&lt;br&gt;Project" style="ellipse;whiteSpace=wrap;html=1;fillColor=default;" vertex="1" parent="1">
          <mxGeometry x="433" y="-930" width="140" height="40" as="geometry" />
        </mxCell>
        <mxCell id="pSmC-OP50VQ6VyfGPC_P-8" value="Return Materials from&lt;br style=&quot;border-color: var(--border-color);&quot;&gt;Project" style="ellipse;whiteSpace=wrap;html=1;fillColor=default;" vertex="1" parent="1">
          <mxGeometry x="433" y="-868" width="140" height="38" as="geometry" />
        </mxCell>
        <mxCell id="pSmC-OP50VQ6VyfGPC_P-9" value="&amp;lt;&amp;lt;extend&amp;gt;&amp;gt;" style="endArrow=open;endSize=12;dashed=1;html=1;rounded=0;exitX=0;exitY=0.5;exitDx=0;exitDy=0;entryX=0.993;entryY=0.376;entryDx=0;entryDy=0;entryPerimeter=0;" edge="1" parent="1" source="pSmC-OP50VQ6VyfGPC_P-7" target="pSmC-OP50VQ6VyfGPC_P-1">
          <mxGeometry x="-0.1286" y="6" width="160" relative="1" as="geometry">
            <mxPoint x="473.69" y="-943" as="sourcePoint" />
            <mxPoint x="360" y="-920" as="targetPoint" />
            <Array as="points" />
            <mxPoint as="offset" />
          </mxGeometry>
        </mxCell>
        <mxCell id="pSmC-OP50VQ6VyfGPC_P-10" value="&amp;lt;&amp;lt;extend&amp;gt;&amp;gt;" style="endArrow=open;endSize=12;dashed=1;html=1;rounded=0;exitX=0;exitY=0.5;exitDx=0;exitDy=0;entryX=0.961;entryY=0.753;entryDx=0;entryDy=0;entryPerimeter=0;" edge="1" parent="1" source="pSmC-OP50VQ6VyfGPC_P-8" target="pSmC-OP50VQ6VyfGPC_P-1">
          <mxGeometry x="-0.2618" y="-3" width="160" relative="1" as="geometry">
            <mxPoint x="491.69" y="-870" as="sourcePoint" />
            <mxPoint x="350" y="-898" as="targetPoint" />
            <Array as="points" />
            <mxPoint as="offset" />
          </mxGeometry>
        </mxCell>
        <mxCell id="pSmC-OP50VQ6VyfGPC_P-11" value="" style="endArrow=none;html=1;rounded=0;entryX=0;entryY=0.5;entryDx=0;entryDy=0;exitX=1;exitY=0.3333333333333333;exitDx=0;exitDy=0;exitPerimeter=0;" edge="1" parent="1" source="cjCh7DbLiIH0CelXDLPa-44" target="pSmC-OP50VQ6VyfGPC_P-1">
          <mxGeometry width="50" height="50" relative="1" as="geometry">
            <mxPoint x="57" y="-885" as="sourcePoint" />
            <mxPoint x="220" y="-985" as="targetPoint" />
          </mxGeometry>
        </mxCell>
        <mxCell id="pSmC-OP50VQ6VyfGPC_P-12" value="&amp;lt;&amp;lt;include&amp;gt;&amp;gt;" style="endArrow=open;endSize=12;dashed=1;html=1;rounded=0;entryX=0;entryY=0.5;entryDx=0;entryDy=0;exitX=1;exitY=0.5;exitDx=0;exitDy=0;" edge="1" parent="1" source="pSmC-OP50VQ6VyfGPC_P-7" target="pSmC-OP50VQ6VyfGPC_P-13">
          <mxGeometry x="0.006" width="160" relative="1" as="geometry">
            <mxPoint x="570" y="-1020" as="sourcePoint" />
            <mxPoint x="650" y="-1020" as="targetPoint" />
            <mxPoint as="offset" />
          </mxGeometry>
        </mxCell>
        <mxCell id="pSmC-OP50VQ6VyfGPC_P-13" value="Check Quantity" style="ellipse;whiteSpace=wrap;html=1;fillColor=default;" vertex="1" parent="1">
          <mxGeometry x="650" y="-930" width="80" height="40" as="geometry" />
        </mxCell>
        <mxCell id="pSmC-OP50VQ6VyfGPC_P-15" value="&lt;font color=&quot;#1a1a1a&quot;&gt;View Clients Feedbacks&lt;br&gt;&lt;/font&gt;" style="ellipse;whiteSpace=wrap;html=1;fillColor=#FDFFF7;" vertex="1" parent="1">
          <mxGeometry x="212" y="-680" width="140" height="40" as="geometry" />
        </mxCell>
        <mxCell id="pSmC-OP50VQ6VyfGPC_P-16" value="" style="endArrow=none;html=1;rounded=0;entryX=0;entryY=0.5;entryDx=0;entryDy=0;exitX=1;exitY=0.3333333333333333;exitDx=0;exitDy=0;exitPerimeter=0;" edge="1" parent="1" source="cjCh7DbLiIH0CelXDLPa-44" target="pSmC-OP50VQ6VyfGPC_P-15">
          <mxGeometry width="50" height="50" relative="1" as="geometry">
            <mxPoint x="57" y="-885" as="sourcePoint" />
            <mxPoint x="222" y="-710" as="targetPoint" />
          </mxGeometry>
        </mxCell>
      </root>
    </mxGraphModel>
  </diagram>
</mxfile>
